<svg width="7" height="11" viewBox="0 0 7 11" fill="none" xmlns="http://www.w3.org/2000/svg">
<path fill-rule="evenodd" clip-rule="evenodd" d="M3.25436 0.00966306C1.83465 0.121064 0.625144 1.15618 0.176799 2.64348C-0.0585082 3.42406 -0.0589186 4.19555 0.175486 5.09385C0.530775 6.45543 1.46498 8.2373 2.77147 10.0453C3.08264 10.4759 3.48297 11 3.50076 11C3.51168 11 3.76494 10.6761 3.97491 10.3937C4.59499 9.55943 5.171 8.68138 5.62524 7.87794C6.4158 6.47965 6.86876 5.2754 6.97914 4.27855C7.01565 3.94881 7.00368 3.53009 6.94758 3.17357C6.73025 1.7925 5.80745 0.627121 4.58416 0.188923C4.1562 0.0356199 3.70269 -0.0255181 3.25436 0.00966306ZM3.75249 2.50572C3.87138 2.5329 3.93851 2.55884 4.05752 2.62357C4.44256 2.833 4.69666 3.24081 4.74508 3.72703C4.7689 3.96615 4.72634 4.21541 4.62119 4.45271C4.54737 4.61928 4.47503 4.72816 4.35547 4.85264C3.93316 5.29234 3.29177 5.35002 2.80056 4.99247C2.711 4.92728 2.57338 4.78303 2.50101 4.67848C2.429 4.57443 2.32561 4.34267 2.29384 4.21404C2.14611 3.61597 2.38535 2.97673 2.87504 2.66104C3.12999 2.49669 3.45862 2.43852 3.75249 2.50572Z" fill="white"/>
</svg>
