<svg width="12" height="9" viewBox="0 0 12 9" fill="none" xmlns="http://www.w3.org/2000/svg">
<path fill-rule="evenodd" clip-rule="evenodd" d="M0.836648 0.0203597C0.408146 0.104264 0.079999 0.441036 0.0135664 0.865104C0.000988934 0.945313 -0.00217395 1.90512 0.00134186 4.56803C0.00584327 7.98538 0.00738795 8.16696 0.0326459 8.24931C0.143798 8.61153 0.413662 8.8739 0.777835 8.97377C0.869393 8.99889 1.09085 9 6.00006 9C10.9093 9 11.1307 8.99889 11.2223 8.97377C11.5865 8.8739 11.8563 8.61153 11.9675 8.24931C11.9927 8.16693 11.9943 7.98557 11.9984 4.5536C12.0023 1.29736 12.0004 0.933302 11.9792 0.829894C11.8929 0.40789 11.5899 0.10897 11.1603 0.0218902C11.0579 0.00113067 10.5593 -0.000948297 5.98965 0.000278794C1.90897 0.00137596 0.913819 0.00524478 0.836648 0.0203597ZM11.0572 0.70883C11.1373 0.728623 11.2552 0.833864 11.2724 0.900834C11.2826 0.940996 11.201 1.02317 9.12332 3.06317C7.93548 4.22949 6.92719 5.21141 6.88269 5.24522C6.7217 5.36755 6.54044 5.45375 6.33105 5.50757C6.17489 5.54771 5.85835 5.54515 5.68559 5.50234C5.528 5.46328 5.34066 5.37929 5.20799 5.28818C5.14542 5.24521 4.31819 4.44456 2.91636 3.0702C1.09851 1.28793 0.724039 0.914246 0.730747 0.889069C0.74456 0.837228 0.869879 0.726284 0.933149 0.709884C1.02103 0.687104 10.9651 0.686064 11.0572 0.70883ZM2.29497 3.41437L3.39385 4.48388L2.04906 5.80356L0.704283 7.12321V4.49639V1.86957L0.950198 2.10721C1.08545 2.2379 1.69061 2.82613 2.29497 3.41437ZM11.2958 4.49221V7.0799L9.97083 5.78066L8.64585 4.48142L9.96716 3.19343C10.6939 2.48504 11.2901 1.90525 11.2922 1.90499C11.2942 1.90473 11.2958 3.06899 11.2958 4.49221ZM4.24963 5.31972C4.69069 5.754 4.81868 5.85696 5.07465 5.98346C5.67349 6.27942 6.3815 6.26823 6.99949 5.95307C7.23251 5.83423 7.32552 5.75915 7.74386 5.35216C7.95456 5.14718 8.1333 4.97947 8.14107 4.97947C8.14884 4.97947 8.85927 5.67044 9.71978 6.51495C11.2815 8.0476 11.2843 8.0505 11.2737 8.09807C11.2576 8.16976 11.1418 8.27642 11.0572 8.29731C10.9617 8.32091 1.04245 8.32191 0.947021 8.29833C0.871365 8.27964 0.777409 8.2056 0.743722 8.13815L0.719935 8.09051L2.30449 6.53499C3.176 5.67945 3.89243 4.97947 3.89655 4.97947C3.90068 4.97947 4.05956 5.13258 4.24963 5.31972Z" fill="white"/>
</svg>
