<svg width="10" height="10" viewBox="0 0 10 10" fill="none" xmlns="http://www.w3.org/2000/svg">
<path fill-rule="evenodd" clip-rule="evenodd" d="M2.07042 0.00951327C2.00494 0.0226027 1.95185 0.0415348 1.87005 0.0809642C1.77318 0.127666 1.71356 0.170265 1.49741 0.347224C1.39696 0.429458 1.28969 0.514533 1.25904 0.53628C1.15933 0.607029 1.06024 0.688947 0.954515 0.788039C0.429944 1.27971 0.109141 1.91933 0.0221257 2.64703C-0.0697949 3.41579 0.125108 4.26547 0.599124 5.1625C1.07209 6.05754 1.87383 7.06338 2.83704 7.97011C3.56829 8.65849 4.22776 9.13407 4.93656 9.48419C5.86791 9.94425 6.80288 10.0992 7.67648 9.93838C8.2623 9.83051 8.8429 9.55237 9.25604 9.18166C9.29594 9.14586 9.4172 9.04411 9.5255 8.95556C9.6338 8.867 9.74924 8.76796 9.78204 8.73548C10.0559 8.46422 10.0716 8.1624 9.82964 7.82513C9.73973 7.69981 9.61552 7.56713 9.46585 7.4365C9.34804 7.33367 8.87064 6.94911 8.73764 6.8499C8.42444 6.61626 8.15193 6.47513 7.89825 6.41517C7.62585 6.35079 7.37494 6.38194 7.13907 6.50944C7.04979 6.5577 6.97305 6.61434 6.74107 6.80318C6.58492 6.9303 6.49817 7.00631 6.43401 7.07223C6.23445 7.27728 6.08286 7.36992 5.89158 7.40375C5.81841 7.41669 5.67668 7.41683 5.59677 7.40404C5.09256 7.3233 4.45455 6.86091 3.67268 6.00958C3.13695 5.42626 2.77975 4.89746 2.65881 4.50867C2.61296 4.36131 2.60638 4.31829 2.60654 4.16726C2.60667 4.04516 2.60847 4.0228 2.62169 3.97833C2.65989 3.84993 2.72159 3.74822 2.8182 3.65438C2.88964 3.58499 2.94655 3.5422 3.08427 3.45431C3.19814 3.38164 3.51056 3.13455 3.65167 3.00556C3.87615 2.80034 3.97737 2.58823 3.97737 2.32303C3.97737 2.10085 3.91004 1.87605 3.75942 1.59535C3.67097 1.4305 3.57696 1.28568 3.2538 0.816467C2.97793 0.415911 2.74153 0.181145 2.50225 0.0700842C2.38865 0.0173592 2.31068 -0.000658114 2.19909 1.82607e-05C2.15302 0.000301694 2.09512 0.00457251 2.07042 0.00951327Z" fill="white"/>
</svg>
